PathFileType	4	(X/Y/Z)	C:\Data Capture\Research\archery\Archery pilot2.trc
DataRate	CameraRate	NumFrames	NumMarkers	Units	OrigDataRate	OrigDataStartFrame	OrigNumFrames
100.00	100.00	      118	3	mm	100.00	1	      1500
Frame#	Time	Marker 1			Marker 2			Marker 3			
		X1	Y1	Z1	X2	Y2	Z2	X3	Y3	Z3	

1	0.000	263.19641	499.85110	792.35760	244.67551	476.99707	696.79120	150.11726	423.96735	740.13739	
2	0.010	262.79507	499.70584	791.92212	244.19876	476.82855	696.43286	149.54912	423.89771	740.02026	
3	0.020	262.39813	499.57440	791.50616	243.73848	476.63748	696.07428	149.00221	423.83554	739.90369	
4	0.030	262.00815	499.46405	791.12384	243.30756	476.40546	695.71912	148.48827	423.77975	739.78717	
5	0.040	261.62494	499.37216	790.78235	242.91055	476.12274	695.37421	148.00356	423.72192	739.66821	
6	0.050	261.24655	499.28793	790.48346	242.54276	475.79501	695.04620	147.53252	423.65363	739.54303	
7	0.060	260.87158	499.19754	790.22626	242.19200	475.44754	694.74042	147.05881	423.57349	739.40619	
8	0.070	260.50317	499.09048	790.00702	241.84396	475.11655	694.46014	146.57462	423.48938	739.25140	
9	0.080	260.15103	498.96161	789.81903	241.49228	474.83176	694.20691	146.08261	423.41434	739.07355	
10	0.090	259.82770	498.80911	789.65228	241.14189	474.60513	693.98041	145.59407	423.36063	738.87292	
11	0.100	259.54153	498.63254	789.49420	240.80089	474.43002	693.77850	145.12733	423.33746	738.65906	
12	0.110	259.29449	498.43323	789.33331	240.47311	474.28778	693.59747	144.70226	423.34903	738.44775	
13	0.120	259.08365	498.21573	789.16156	240.15715	474.15881	693.43335	144.33139	423.39215	738.25421	
14	0.130	258.90167	497.98904	788.97461	239.84737	474.03204	693.28241	144.01640	423.45761	738.08911	
15	0.140	258.73688	497.76495	788.77246	239.53700	473.90637	693.14050	143.75146	423.53448	737.95752	
16	0.150	258.57437	497.55368	788.55951	239.22299	473.78500	693.00391	143.52802	423.61328	737.85876	
17	0.160	258.39923	497.35898	788.34253	238.90886	473.66977	692.87109	143.33644	423.68668	737.78656	
18	0.170	258.20181	497.17731	788.12769	238.60399	473.55951	692.74390	143.16422	423.74933	737.73059	
19	0.180	257.98190	497.00125	787.92065	238.32028	473.45074	692.62518	142.99359	423.79700	737.67896	
20	0.190	257.74841	496.82465	787.72748	238.06847	473.33936	692.51685	142.80255	423.82523	737.62061	
21	0.200	257.51584	496.64545	787.55347	237.85468	473.22159	692.41925	142.57021	423.82791	737.54797	
22	0.210	257.29974	496.46518	787.40350	237.67764	473.09457	692.33258	142.28290	423.79761	737.45880	
23	0.220	257.11185	496.28607	787.28253	237.52809	472.95630	692.25696	141.93668	423.72946	737.35669	
24	0.230	256.95740	496.10846	787.19696	237.39113	472.80493	692.19196	141.53752	423.62717	737.24945	
25	0.240	256.83603	495.93027	787.15460	237.25072	472.63971	692.13654	141.10156	423.50491	737.14764	
26	0.250	256.74380	495.74649	787.16113	237.09436	472.46359	692.09143	140.65221	423.38202	737.06201	
27	0.260	256.67340	495.54797	787.21631	236.91576	472.28391	692.06055	140.21387	423.27686	737.00085	
28	0.270	256.61429	495.32098	787.31183	236.71567	472.10818	692.05035	139.80449	423.20282	736.96814	
29	0.280	256.55481	495.04987	787.43280	236.50211	471.93848	692.06805	139.42914	423.16443	736.96423	
30	0.290	256.48584	494.72229	787.56201	236.28810	471.76926	692.11920	139.07993	423.15552	736.98810	
31	0.300	256.40335	494.33444	787.68536	236.08546	471.58932	692.20447	138.74380	423.16141	737.03827	
32	0.310	256.30804	493.89325	787.79449	235.89853	471.38535	692.31769	138.41084	423.16437	737.11176	
33	0.320	256.20221	493.41507	787.88672	235.72319	471.14529	692.44781	138.07790	423.14938	737.20361	
34	0.330	256.08743	492.91986	787.96222	235.55103	470.86118	692.58307	137.74844	423.10776	737.30695	
35	0.340	255.96506	492.42267	788.02277	235.37392	470.53021	692.71252	137.43056	423.03857	737.41254	
36	0.350	255.83809	491.92804	788.07056	235.18622	470.15216	692.82623	137.13213	422.94620	737.50745	
37	0.360	255.71155	491.42938	788.10828	234.98495	469.72806	692.91418	136.85347	422.83340	737.57587	
38	0.370	255.59293	490.91394	788.13806	234.77052	469.26337	692.96588	136.58374	422.69641	737.60327	
39	0.380	255.49376	490.37003	788.15973	234.54971	468.76871	692.97211	136.30693	422.52731	737.58105	
40	0.390	255.42888	489.78915	788.16791	234.33783	468.25476	692.92871	136.01222	422.31976	737.50806	
41	0.400	255.41203	489.16312	788.15338	234.15486	467.72787	692.83618	135.69838	422.06940	737.38751	
42	0.410	255.45126	488.48212	788.10687	234.01772	467.18805	692.69647	135.37271	421.77176	737.22339	
43	0.420	255.54704	487.73529	788.02063	233.93503	466.62790	692.51147	135.05270	421.42667	737.01978	
44	0.430	255.69441	486.91492	787.88776	233.90584	466.03513	692.28442	134.76860	421.04639	736.78210	
45	0.440	255.88655	486.02133	787.70215	233.92169	465.39819	692.02167	134.55827	420.65436	736.51776	
46	0.450	256.11673	485.06534	787.46033	233.97214	464.70911	691.73132	134.45279	420.27026	736.23444	
47	0.460	256.37878	484.06540	787.16315	234.04895	463.96341	691.42065	134.46152	419.89438	735.93628	
48	0.470	256.66498	483.04190	786.81506	234.14534	463.16144	691.09509	134.56467	419.50256	735.62238	
49	0.480	256.96439	482.01031	786.42242	234.25557	462.30911	690.75842	134.72267	419.06207	735.29169	
50	0.490	257.26410	480.97882	785.99377	234.37532	461.41663	690.41150	134.90962	418.56592	734.94727	
51	0.500	257.55127	479.95175	785.54053	234.49895	460.49619	690.05164	135.13499	418.04565	734.59485	
52	0.510	257.81400	478.93558	785.07690	234.61737	459.55936	689.67517	135.41728	417.53598	734.23932	
53	0.520	258.04385	477.94147	784.61700	234.72086	458.61487	689.28149	135.73997	417.02969	733.88574	
54	0.530	258.23831	476.98145	784.17090	234.80325	457.66864	688.87476	136.03535	416.46890	733.54327	
55	0.540	258.39978	476.06256	783.74133	234.86403	456.72409	688.46167	136.21051	415.77777	733.22559	
56	0.550	258.53128	475.18304	783.32324	234.90651	455.78220	688.04846	136.19949	414.90875	732.94525	
57	0.560	258.63620	474.33487	782.90723	234.93341	454.84454	687.63953	136.00679	413.87387	732.70868	
58	0.570	258.72104	473.51218	782.48718	234.94487	453.91516	687.23724	135.72000	412.75055	732.51575	
59	0.580	258.79617	472.71469	782.06390	234.93997	452.99887	686.84302	135.47339	411.65088	732.36176	
60	0.590	258.87424	471.94263	781.64136	234.91811	452.10016	686.45886	135.37932	410.66916	732.23926	
61	0.600	258.96753	471.19135	781.22302	234.87833	451.22379	686.08740	135.48596	409.85168	732.13739	
62	0.610	259.08176	470.45456	780.81165	234.82089	450.37387	685.73138	135.77710	409.19571	732.04126	
63	0.620	259.21262	469.73105	780.41077	234.75124	449.55200	685.39282	136.18343	408.65244	731.93451	
64	0.630	259.35101	469.02686	780.02551	234.68074	448.75638	685.07239	136.59470	408.13135	731.80493	
65	0.640	259.49274	468.34885	779.65955	234.62294	447.98303	684.76874	136.88782	407.52509	731.64850	
66	0.650	259.64206	467.69620	779.31250	234.58968	447.23038	684.47888	136.97499	406.75613	731.46802	
67	0.660	259.80713	467.05939	778.97882	234.58951	446.50125	684.19543	136.84875	405.81708	731.26953	
68	0.670	259.99451	466.42480	778.64685	234.62819	445.79916	683.90509	136.59454	404.77725	731.05872	
69	0.680	260.20813	465.77972	778.29907	234.71120	445.12402	683.59076	136.34930	403.74561	730.83704	
70	0.690	260.45126	465.11780	777.91754	234.84645	444.47092	683.23590	136.23039	402.81342	730.59705	
71	0.700	260.72742	464.44284	777.48938	235.04289	443.83124	682.82886	136.29839	402.02667	730.32196	
72	0.710	261.04022	463.76492	777.00580	235.30368	443.19632	682.36633	136.56512	401.39108	729.99084	
73	0.720	261.39349	463.09186	776.45905	235.62325	442.56021	681.85040	137.00558	400.87888	729.58655	
74	0.730	261.79068	462.42618	775.84479	235.99242	441.91711	681.28107	137.56499	400.43912	729.10211	
75	0.740	262.23111	461.76611	775.16644	236.40114	441.25894	680.65375	138.18266	400.02567	728.54291	
76	0.750	262.70468	461.10709	774.43402	236.83611	440.57816	679.96509	138.80714	399.61005	727.92255	
77	0.760	263.19391	460.44595	773.66003	237.28142	439.87360	679.22217	139.38239	399.16348	727.26080	
78	0.770	263.68237	459.78696	772.86017	237.72101	439.15271	678.44592	139.86093	398.66592	726.58368	
79	0.780	264.15836	459.14444	772.05682	238.13831	438.42999	677.66687	140.24306	398.14182	725.91797	
80	0.790	264.61050	458.53857	771.27826	238.51855	437.72507	676.91602	140.56244	397.64758	725.28143	
81	0.800	265.02451	457.98901	770.55237	238.85277	437.06152	676.21808	140.82387	397.21463	724.68127	
82	0.810	265.38416	457.51416	769.90125	239.13640	436.46445	675.58887	140.97581	396.82156	724.11981	
83	0.820	265.67258	457.13403	769.33948	239.36501	435.95938	675.03674	140.95865	396.43500	723.60059	
84	0.830	265.87463	456.86826	768.87360	239.53253	435.57266	674.56519	140.77536	396.07538	723.13232	
85	0.840	265.98135	456.72922	768.50275	239.63255	435.33041	674.17535	140.49678	395.82520	722.72626	
86	0.850	265.99368	456.71906	768.22028	239.66101	435.25381	673.86548	140.20876	395.78098	722.38739	
87	0.860	265.92035	456.83279	768.01648	239.61728	435.35416	673.63000	139.97945	396.01761	722.11133	
88	0.870	265.77188	457.06235	767.87994	239.50250	435.63205	673.46045	139.85992	396.58228	721.88910	
89	0.880	265.55545	457.40057	767.79803	239.31784	436.08029	673.34674	139.88170	397.48993	721.71289	
90	0.890	265.27313	457.84534	767.75800	239.06412	436.68680	673.27789	140.03522	398.70779	721.57770	
91	0.900	264.92215	458.39993	767.74854	238.74135	437.43613	673.24164	140.24799	400.14273	721.47864	
92	0.910	264.49670	459.06845	767.76117	238.34862	438.31036	673.22638	140.40605	401.66483	721.40759	
93	0.920	263.99225	459.84894	767.79065	237.88579	439.28851	673.22656	140.41548	403.16385	721.35461	
94	0.930	263.40921	460.73038	767.83612	237.35493	440.34579	673.24384	140.23663	404.58090	721.31360	
95	0.940	262.75302	461.69550	767.90234	236.75929	441.45502	673.28241	139.86765	405.89667	721.28577	
96	0.950	262.03250	462.72333	767.99731	236.10089	442.59027	673.34564	139.31978	407.11029	721.27777	
97	0.960	261.25711	463.79037	768.12445	235.37874	443.72974	673.43622	138.60811	408.22958	721.29901	
98	0.970	260.43372	464.87292	768.27875	234.58659	444.85794	673.55652	137.74753	409.26733	721.35956	
99	0.980	259.56488	465.95279	768.45062	233.71236	445.96698	673.70758	136.74954	410.23898	721.46838	
100	0.990	258.64914	467.02286	768.63135	232.74251	447.05511	673.88757	135.62418	411.16113	721.63159	
101	1.000	257.68317	468.08698	768.81427	231.66776	448.12466	674.09033	134.38808	412.05383	721.85236	
102	1.010	256.66623	469.15436	768.99255	230.48755	449.18127	674.30658	133.07486	412.94699	722.12830	
103	1.020	255.60265	470.23492	769.15765	229.21283	450.23526	674.52692	131.74170	413.88406	722.45032	
104	1.030	254.50087	471.33734	769.30023	227.86400	451.30081	674.74152	130.45702	414.90674	722.80414	
105	1.040	253.37183	472.47018	769.41205	226.46655	452.39178	674.93872	129.26370	416.02023	723.17267	
106	1.050	252.22804	473.64331	769.48730	225.05150	453.51730	675.10522	128.15654	417.17770	723.53705	
107	1.060	251.08511	474.86646	769.52289	223.65854	454.68048	675.22784	127.10571	418.31012	723.87775	
108	1.070	249.96442	476.14398	769.51648	222.33398	455.87845	675.29688	126.09135	419.36359	724.17816	
109	1.080	248.89616	477.46982	769.46631	221.12251	457.10364	675.31018	125.10993	420.30701	724.42804	
110	1.090	247.91989	478.82590	769.37262	220.06001	458.34598	675.27356	124.16166	421.12219	724.62274	
111	1.100	247.07770	480.18649	769.24194	219.17236	459.59497	675.19769	123.24686	421.80167	724.76379	
112	1.110	246.40413	481.52689	769.08911	218.47929	460.83929	675.09613	122.37756	422.35745	724.86066	
113	1.120	245.92157	482.82901	768.93634	217.99622	462.06683	674.98529	121.59029	422.82907	724.92651	
114	1.130	245.63994	484.08289	768.80780	217.73073	463.26849	674.88403	120.94961	423.28366	724.97137	
115	1.140	245.55473	485.28589	768.72510	217.67905	464.44257	674.81342	120.52743	423.79718	725.00226	
116	1.150	245.64546	486.44202	768.70569	217.82819	465.59445	674.79285	120.36555	424.42200	725.02710	
117	1.160	245.88231	487.56265	768.76477	218.16092	466.73346	674.83716	120.46026	425.17017	725.05359	
118	1.170	246.23871	488.66553	768.91687	218.65958	467.86807	674.95770	120.77777	426.01990	725.08722	
